<?xml version="1.0" encoding="UTF-8" standalone="no"?>
<svg
   version="1.1"
   preserveAspectRatio="none"
   x="0px"
   y="0px"
   width="210"
   height="630"
   viewBox="0 0 210 630"
   id="svg338"
   sodipodi:docname="bt-bonus (2).svg"
   xml:space="preserve"
   inkscape:export-filename="bt-bonus lovit.svg"
   inkscape:export-xdpi="96"
   inkscape:export-ydpi="96"
   xmlns:inkscape="http://www.inkscape.org/namespaces/inkscape"
   xmlns:sodipodi="http://sodipodi.sourceforge.net/DTD/sodipodi-0.dtd"
   xmlns="http://www.w3.org/2000/svg"
   xmlns:svg="http://www.w3.org/2000/svg"><sodipodi:namedview
     id="namedview340"
     pagecolor="#ffffff"
     bordercolor="#000000"
     borderopacity="0.25"
     inkscape:showpageshadow="2"
     inkscape:pageopacity="0.0"
     inkscape:pagecheckerboard="0"
     inkscape:deskcolor="#d1d1d1"
     showgrid="false" /><defs
     id="defs326" /><g
     data-paper-data="{&quot;isPaintingLayer&quot;:true}"
     fill="#ffffff"
     fill-rule="nonzero"
     stroke="none"
     stroke-width="0"
     stroke-linecap="butt"
     stroke-linejoin="miter"
     stroke-miterlimit="10"
     stroke-dasharray="none"
     stroke-dashoffset="0"
     style="mix-blend-mode:normal;fill:#ffffff"
     id="g528"
     transform="matrix(0.64513315,0,0,0.64513315,-120.28398,-11.055147)"><path
       d="m 239.77623,197.23755 c -6.11843,0 -2.87972,-60.14804 -2.87972,-60.14804 l 17.87597,-0.65201 c 0,0 9.61717,18.03852 9.61717,33.25257 0,15.21405 -11.0198,27.54747 -24.61342,27.54747 z"
       data-paper-data="{&quot;index&quot;:null}"
       id="path520"
       style="fill:#ffffff" /><path
       d="m 215.61034,169.69007 c 0,-15.21405 9.61717,-33.25257 9.61717,-33.25257 l 17.87597,0.65201 c 0,0 3.23871,60.14804 -2.87972,60.14804 -13.59362,0 -24.61342,-12.33342 -24.61342,-27.54747 z"
       id="path522"
       style="fill:#ffffff" /><path
       d="m 235.97926,222.36715 c 0,0 0.13056,-21.37952 0.0444,-24.91301 -0.0233,-0.95491 -0.69639,-1.81945 -0.69639,-1.81945 h 9.34549 c 0,0 -0.69157,0.81102 -0.73586,1.71899 -0.16895,3.46355 -0.56816,25.01347 -0.56816,25.01347 z"
       id="path524"
       style="fill:#ffffff" /><path
       d="m 259.99501,223.5625 h -39.99002 c 0,0 8.5174,-3.47739 19.56034,-3.47739 11.04294,0 20.42969,3.47739 20.42969,3.47739 z"
       id="path526"
       style="fill:#ffffff" /></g></svg>
