
<svg xmlns="http://www.w3.org/2000/svg" version="1.1" xmlns:xlink="http://www.w3.org/1999/xlink" preserveAspectRatio="none" x="0px" y="0px" width="126px" height="150px" viewBox="0 0 126 150">
<defs>
<g id="Symbol_1_0_Layer0_0_FILL">
<path fill="#C9741C" stroke="none" d="
M 107.3 153.25
Q 115.1 154.25 123.3 155.05
L 123.3 141.8
Q 115.95 141.05 107.3 139.75
L 107.3 153.25
M 56.4 143.45
L 56.4 128.7
Q 45.85 125.65 35.7 122.15
L 34.35 137.2
Q 45.25 140.55 56.4 143.45
M 290.3 137.1
L 289.2 122.15
Q 218.1 146.45 147.2 143.55
L 147.2 156.55
Q 190.85 158.05 234.45 150.5 262.6 145.55 290.3 137.1 Z"/>

<path fill="#FFFFFF" stroke="none" d="
M 147.2 156.55
Q 135.45 156.2 123.3 155.05
L 110.35 180.2
Q 122.6 181.35 135.9 182.05
L 147.2 156.55
M 42.25 168
Q 57.05 173.15 72.85 175.4
L 78.65 176.3
Q 87.35 177.6 93.25 178.35
L 107.3 153.25
Q 81.65 149.85 56.4 143.45
L 42.25 168 Z"/>

<path fill="#34344C" stroke="none" d="
M 107.3 153.25
L 93.25 178.35
Q 100.85 179.3 110.35 180.2
L 123.3 155.05
Q 115.1 154.25 107.3 153.25
M 34.35 137.2
Q 7.95 133.3 0.3 141.6 -1.95 146.1 13.95 155.25 27 162.65 41 167.55
L 42.25 168 56.4 143.45
Q 45.25 140.55 34.35 137.2
M 243.45 168.85
Q 246.5 155.35 234.45 150.5 190.85 158.05 147.2 156.55
L 135.9 182.05
Q 183.65 184.35 230.9 178.35 241.1 176 243.45 168.85 Z"/>

<path fill="#FFD12B" stroke="none" d="
M 147.2 143.55
Q 134.4 143 123.3 141.8
L 123.3 155.05
Q 135.45 156.2 147.2 156.55
L 147.2 143.55
M 56.4 128.7
L 56.4 143.45
Q 81.65 149.85 107.3 153.25
L 107.3 139.75
Q 95.5 137.95 84.5 135.65 71.05 132.8 56.4 128.7 Z"/>

<path fill="#000000" stroke="none" d="
M 78.7 188.05
L 78.65 176.3 72.85 175.4
Q 57.05 173.15 42.25 168
L 41 167.55
Q 41.4 202.4 12.05 231.1 24.6 230.45 38.25 224.3 32.3 236 9.5 248.95 27.7 255.1 52.1 243 62.75 292.75 78.3 309.5
L 83.9 301.4
Q 89.3 314.9 103.65 319.65 87.75 303.35 87.15 266.95
L 87.15 249.5
Q 86.9 233.5 85.25 223.6 85.05 222.3 84.3 220.85 83.45 219.25 83.25 218.4 81.85 214.2 80.5 206.05 79.15 197.7 78.7 188.05
M 270.5 171.75
Q 258.95 174.1 247.35 176 246.15 196.3 241.9 217
L 240.8 220.85
Q 239.6 225.3 239.2 228.2 238.65 232.15 238.15 238.25 238.9 255.05 236.4 281.4
L 236.25 284.4 236.2 284.6
Q 233.95 303.3 222.45 318.1 232 311.65 240.6 302.8
L 241.6 317.9
Q 251.15 307.95 257.8 295.1
L 262.25 302.7
Q 286.35 266.4 289.85 226.5
L 289.9 224.95
Q 291.2 196.25 284 173.3 302.3 171.85 309 166.15 303.65 162.6 302.5 159.75 288.55 166.85 270.5 171.75 Z"/>

<path fill="#636372" stroke="none" d="
M 94.8 24.2
Q 101.2 16.15 117.55 9.85 125.7 6.75 132.6 5.2 126.2 5.05 116.9 4.7 110.5 4.7 92.9 1.5 70.9 -2.55 60.1 5.25 50.4 12.3 45.45 32.8 41.45 49.4 38.25 92.9
L 35.7 122.15
Q 45.85 125.65 56.4 128.7 71.05 132.8 84.5 135.65 83.95 110.95 84.95 84.65 86.95 32.1 94.8 24.2
M 247.35 176
Q 258.95 174.1 270.5 171.75 288.55 166.85 302.5 159.75 307.05 157.4 311.65 154.55 327.45 144.75 324.9 141.15 319.1 132.05 290.3 137.1 262.6 145.55 234.45 150.5 246.5 155.35 243.45 168.85 241.1 176 230.9 178.35 239.15 177.3 247.35 176 Z"/>

<path fill="#D2D2D2" stroke="none" d="
M 247.35 176
Q 239.15 177.3 230.9 178.35 183.65 184.35 135.9 182.05 122.6 181.35 110.35 180.2 100.85 179.3 93.25 178.35 87.35 177.6 78.65 176.3
L 78.7 188.05
Q 79.15 197.7 80.5 206.05 81.85 214.2 83.25 218.4 83.45 219.25 84.3 220.85 85.05 222.3 85.25 223.6 86.9 233.5 87.15 249.5
L 87.15 266.95
Q 87.75 303.35 103.65 319.65 131.6 352.85 149.05 362.5 163.85 370.3 180 360 205.35 340.65 222.45 318.1 233.95 303.3 236.2 284.6
L 236.25 284.4 236.4 281.4
Q 238.9 255.05 238.15 238.25 238.65 232.15 239.2 228.2 239.6 225.3 240.8 220.85
L 241.9 217
Q 246.15 196.3 247.35 176 Z"/>

<path fill="#181828" stroke="none" d="
M 238 0.7
Q 229.7 3.3 213.65 4.3 166.75 6.1 132.6 5.2 125.7 6.75 117.55 9.85 101.2 16.15 94.8 24.2 86.95 32.1 84.95 84.65 83.95 110.95 84.5 135.65 95.5 137.95 107.3 139.75 115.95 141.05 123.3 141.8 134.4 143 147.2 143.55 218.1 146.45 289.2 122.15 282.35 35.05 274.85 17.3 265.55 -3.45 238 0.7 Z"/>
</g>
</defs>

<g transform="matrix( 0.38739013671875, 0, 0, 0.4099884033203125, 0,0) ">
<g transform="matrix( 1, 0, 0, 1, 0,0) ">
<use xlink:href="#Symbol_1_0_Layer0_0_FILL"/>
</g>
</g>
</svg>
